<?xml version="1.0" encoding="UTF-8" standalone="no"?>
<!DOCTYPE svg PUBLIC "-//W3C//DTD SVG 1.1//EN" "http://www.w3.org/Graphics/SVG/1.1/DTD/svg11.dtd">
<!-- Created with Vectornator (http://vectornator.io/) -->
<svg height="100%" stroke-miterlimit="10" style="fill-rule:nonzero;clip-rule:evenodd;stroke-linecap:round;stroke-linejoin:round;" version="1.1" viewBox="0 0 850.5 283.5" width="100%" xml:space="preserve" xmlns="http://www.w3.org/2000/svg" xmlns:vectornator="http://vectornator.io" xmlns:xlink="http://www.w3.org/1999/xlink">
<defs/>
<clipPath id="ArtboardFrame">
<rect height="283.5" width="850.5" x="0" y="0"/>
</clipPath>
<g clip-path="url(#ArtboardFrame)" id="Calque-1" vectornator:layerName="Calque 1">
<path d="M5.68434e-14 0L850.5 0L850.5 0L850.5 284.419L850.5 284.419L5.68434e-14 284.419L5.68434e-14 284.419L5.68434e-14 0L5.68434e-14 0Z" fill="#ffffff" fill-rule="nonzero" opacity="1" stroke="none" vectornator:layerName="rect"/>
<path d="M259.303 3.00091L259.303 281.085C259.303 283.086 257.458 284.419 254.691 284.419C251.923 284.419 250.078 283.086 250.078 281.085L250.078 3.33434C250.078 1.33374 251.923 2.84217e-14 254.691 2.84217e-14C257.458 2.84217e-14 259.303 1.33374 259.303 3.00091Z" fill="#4348bd" fill-rule="nonzero" opacity="1" stroke="none" vectornator:layerName="path"/>
<path d="M195.244 122.971L111.107 25.9075C104.913 18.7398 96.6542 14.8572 87.8792 14.8572C79.1042 14.8572 70.8453 18.7398 64.6512 25.9075L3.4842 96.3905C-1.1614 101.766-1.1614 110.129 3.4842 115.504C8.12979 120.88 15.3563 120.88 20.0019 115.504L81.1689 44.7229C84.7821 40.5417 91.2343 40.5417 95.1057 44.7229L179.243 142.085C181.823 145.071 183.114 148.655 183.114 152.837L183.114 242.135C183.114 246.017 180.533 249.004 177.178 249.004L150.595 249.004C143.884 249.004 138.465 242.732 138.465 234.967L138.465 193.454C138.465 174.937 125.56 160.004 109.559 160.004L77.8137 160.004C62.0703 160.004 49.424 174.937 49.424 192.857L49.424 234.668C49.424 242.135 54.5857 248.108 61.038 248.108C67.4902 248.108 72.652 242.135 72.652 234.668L72.652 193.155C72.652 189.87 74.9748 187.182 77.8137 187.182L109.559 187.182C112.656 187.182 115.237 190.169 115.237 193.753L115.237 234.967C115.237 257.665 130.98 275.883 150.595 275.883L176.92 275.883C192.921 275.883 206.084 260.652 206.084 242.135L206.084 152.538C205.826 141.488 201.954 131.035 195.244 122.971Z" fill="#e74c3c" fill-rule="nonzero" opacity="1" stroke="none" vectornator:layerName="path 1"/>
<g opacity="1" vectornator:layerName="g">
<path d="M335.929 239.112L328.608 239.112L328.608 187.763L335.589 187.763C338.245 187.763 338.96 186.305 338.96 183.901L338.96 172.985C338.96 170.581 338.245 169.084 335.589 169.084L303.305 169.084C300.648 169.084 299.933 170.581 299.933 172.985L299.933 183.901C299.933 186.305 300.648 187.763 303.305 187.763L310.388 187.763L310.388 239.112L303.066 239.112C300.41 239.112 299.695 240.609 299.695 243.013L299.695 253.614C299.695 256.057 300.41 257.515 303.066 257.515L335.929 257.515C338.62 257.515 339.301 256.057 339.301 253.614L339.301 243.013C339.301 240.609 338.62 239.112 335.929 239.112Z" fill="#4348bd" fill-rule="nonzero" opacity="1" stroke="none" vectornator:layerName="path"/>
<path d="M422.804 168.966L411.668 168.966C407.819 168.966 407.241 171.921 406.423 173.537L390.417 206.6L374.48 173.537C373.56 171.921 373.083 168.966 369.167 168.966L357.656 168.966C354.966 168.966 354.285 170.463 354.285 172.867L354.285 253.614C354.285 256.727 355.579 257.515 357.656 257.515L369.167 257.515C371.244 257.515 372.504 256.727 372.504 253.614L372.504 208.058L384.253 231.585C384.832 232.649 385.752 234.422 387.489 234.422L393.312 234.422C395.049 234.422 396.105 232.649 396.683 231.585L408.296 208.058L408.296 253.614C408.296 256.727 409.556 257.515 411.668 257.515L422.804 257.515C424.881 257.515 426.175 256.727 426.175 253.614L426.175 172.867C426.175 170.463 425.46 168.966 422.804 168.966Z" fill="#4348bd" fill-rule="nonzero" opacity="1" stroke="none" vectornator:layerName="path"/>
<path d="M511.857 168.966L500.721 168.966C496.907 168.966 496.294 171.921 495.511 173.537L479.471 206.6L463.567 173.537C462.648 171.921 462.171 168.966 458.221 168.966L446.71 168.966C444.054 168.966 443.373 170.463 443.373 172.867L443.373 253.614C443.373 256.727 444.633 257.515 446.71 257.515L458.221 257.515C460.298 257.515 461.592 256.727 461.592 253.614L461.592 208.058L473.307 231.585C473.886 232.649 474.84 234.422 476.576 234.422L482.366 234.422C484.103 234.422 485.158 232.649 485.737 231.585L497.35 208.058L497.35 253.614C497.35 256.727 498.644 257.515 500.721 257.515L511.857 257.515C513.969 257.515 515.229 256.727 515.229 253.614L515.229 172.867C515.229 170.463 514.548 168.966 511.857 168.966Z" fill="#4348bd" fill-rule="nonzero" opacity="1" stroke="none" vectornator:layerName="path"/>
<path d="M592.465 197.458C592.465 176.217 575.029 167.074 561.237 167.074C547.411 167.074 530.213 176.217 530.213 197.458L530.213 229.181C530.213 250.382 547.411 259.525 561.237 259.525C575.029 259.525 592.465 250.382 592.465 229.181L592.465 197.458ZM574.246 227.289C574.246 235.88 568.899 240.846 561.237 240.846C553.677 240.846 548.33 235.88 548.33 227.289L548.33 199.349C548.33 190.719 553.677 185.753 561.237 185.753C568.899 185.753 574.246 190.719 574.246 199.349L574.246 227.289Z" fill="#4348bd" fill-rule="nonzero" opacity="1" stroke="none" vectornator:layerName="path"/>
<path d="M621.617 234.816L608.71 234.816C606.632 234.816 605.338 235.604 605.338 238.718L605.338 253.614C605.338 256.727 606.632 257.515 608.71 257.515L621.617 257.515C623.694 257.515 624.988 256.727 624.988 253.614L624.988 238.718C624.988 235.604 623.694 234.816 621.617 234.816Z" fill="#4348bd" fill-rule="nonzero" opacity="1" stroke="none" vectornator:layerName="path"/>
<path d="M669.702 169.084L643.548 169.084C640.892 169.084 640.177 170.581 640.177 172.985L640.177 253.614C640.177 256.727 641.471 257.515 643.548 257.515L655.059 257.515C657.136 257.515 658.43 256.727 658.43 253.614L658.43 231.309L669.566 231.309C689.42 231.309 700.113 218.974 700.113 200.295C700.113 181.734 689.658 169.084 669.702 169.084ZM669.566 213.181L658.43 213.181L658.43 188.039L669.566 188.039C678.625 188.039 682.575 193.674 682.575 200.689C682.575 207.388 678.625 213.181 669.566 213.181Z" fill="#4348bd" fill-rule="nonzero" opacity="1" stroke="none" vectornator:layerName="path"/>
<path d="M775.715 253.22L759.335 225.674C766.555 222.836 775.477 213.063 775.477 198.916C775.477 190.325 773.025 182.68 768.734 177.832C763.864 172.197 758.279 169.242 745.645 169.242L716.357 169.242C713.701 169.242 713.122 170.7 713.122 173.143L713.122 253.614C713.122 256.727 714.28 257.515 716.357 257.515L727.868 257.515C729.945 257.515 731.239 256.727 731.239 253.614L731.239 188.039L746.666 188.039C752.728 188.039 757.36 192.492 757.36 199.467C757.36 205.773 752.013 210.344 746.326 210.344L744.01 210.344C741.354 210.344 740.639 211.841 740.639 214.245L740.639 225.004C740.639 228.747 740.877 230.245 741.933 231.861L754.465 253.496C756.1 256.333 757.496 257.515 760.254 257.515L773.978 257.515C776.192 257.515 776.771 255.111 775.715 253.22Z" fill="#4348bd" fill-rule="nonzero" opacity="1" stroke="none" vectornator:layerName="path"/>
<path d="M850.5 197.458C850.5 176.217 833.064 167.074 819.272 167.074C805.445 167.074 788.248 176.217 788.248 197.458L788.248 229.181C788.248 250.382 805.445 259.525 819.272 259.525C833.064 259.525 850.5 250.382 850.5 229.181L850.5 197.458ZM832.281 227.289C832.281 235.88 826.934 240.846 819.272 240.846C811.711 240.846 806.365 235.88 806.365 227.289L806.365 199.349C806.365 190.719 811.711 185.753 819.272 185.753C826.934 185.753 832.281 190.719 832.281 199.349L832.281 227.289Z" fill="#4348bd" fill-rule="nonzero" opacity="1" stroke="none" vectornator:layerName="path"/>
</g>
<g opacity="1" vectornator:layerName="g 1">
<path d="M343.203 70.4596C338.538 68.2922 321.476 65.3366 321.476 57.1397C321.476 51.1103 327.879 49.337 331.693 49.337C335.166 49.337 339.355 50.5586 341.569 52.9625C342.965 54.5782 343.544 55.6422 344.021 57.0215C344.6 58.7555 344.94 60.647 347.154 60.647L358.528 60.647C361.184 60.647 361.9 60.0953 361.9 56.8639C361.9 39.1303 345.758 31.3275 331.012 31.3275C316.47 31.9975 302.78 40.6278 302.78 58.0855C302.78 75.1492 313.576 80.5086 325.325 84.8041C335.166 88.469 345.519 88.5873 345.519 96.1142C345.519 103.641 340.411 105.257 334.145 105.257C329.854 105.257 325.086 104.035 322.77 100.804C321.238 98.7939 320.659 97.06 320.557 95.2866C320.319 91.9369 319.024 91.5429 316.368 91.5429L305.096 91.5429C302.44 91.5429 301.725 92.2128 301.725 95.2866C301.725 114.124 318.446 123.779 332.987 123.779C350.866 123.779 363.875 114.636 363.875 95.5625C363.875 77.3166 351.547 73.4152 343.203 70.4596Z" fill="#4348bd" fill-rule="nonzero" opacity="1" stroke="none" vectornator:layerName="path"/>
<path d="M445.981 33.2191L434.811 33.2191C430.997 33.2191 430.418 36.1747 429.601 37.7904L413.561 70.8537L397.657 37.7904C396.738 36.1747 396.261 33.2191 392.311 33.2191L380.834 33.2191C378.144 33.2191 377.463 34.7166 377.463 37.1205L377.463 117.867C377.463 120.981 378.723 121.769 380.834 121.769L392.311 121.769C394.422 121.769 395.682 120.981 395.682 117.867L395.682 72.3118L407.397 95.8383C407.976 96.9023 408.93 98.6757 410.666 98.6757L416.456 98.6757C418.227 98.6757 419.248 96.9023 419.827 95.8383L431.44 72.3118L431.44 117.867C431.44 120.981 432.734 121.769 434.811 121.769L445.981 121.769C448.059 121.769 449.319 120.981 449.319 117.867L449.319 37.1205C449.319 34.7166 448.638 33.2191 445.981 33.2191Z" fill="#4348bd" fill-rule="nonzero" opacity="1" stroke="none" vectornator:layerName="path"/>
<path d="M532.243 118.025L506.599 37.5146C505.544 34.7166 504.386 33.3374 501.832 33.3374L490.661 33.3374C488.107 33.3374 486.847 34.7166 485.928 37.5146L460.148 118.025C459.569 119.641 459.569 121.769 462.123 121.769L474.315 121.769C476.869 121.769 477.789 120.981 478.708 117.749L481.977 107.148L510.413 107.148L513.683 117.749C514.602 120.981 515.522 121.769 518.076 121.769L530.267 121.769C532.822 121.769 532.822 119.641 532.243 118.025ZM487.528 88.3114L496.247 58.6372L504.965 88.3114L487.528 88.3114Z" fill="#4348bd" fill-rule="nonzero" opacity="1" stroke="none" vectornator:layerName="path"/>
<path d="M605.188 117.473L588.808 89.9271C595.994 87.0898 604.95 77.3166 604.95 63.1692C604.95 54.5782 602.498 46.9331 598.207 42.0859C593.337 36.4506 587.752 33.495 575.084 33.495L545.831 33.495C543.174 33.495 542.595 34.9531 542.595 37.3964L542.595 117.867C542.595 120.981 543.753 121.769 545.831 121.769L557.341 121.769C559.418 121.769 560.713 120.981 560.713 117.867L560.713 52.2926L576.139 52.2926C582.167 52.2926 586.833 56.7457 586.833 63.7209C586.833 70.0261 581.486 74.5975 575.799 74.5975L573.483 74.5975C570.793 74.5975 570.112 76.095 570.112 78.4988L570.112 89.2572C570.112 93.001 570.35 94.4985 571.372 96.1142L583.938 117.749C585.539 120.587 586.935 121.769 589.727 121.769L603.452 121.769C605.631 121.769 606.21 119.365 605.188 117.473Z" fill="#4348bd" fill-rule="nonzero" opacity="1" stroke="none" vectornator:layerName="path"/>
<path d="M671.596 33.3374L617.721 33.3374C615.064 33.3374 614.349 34.8349 614.349 37.2387L614.349 48.3912C614.349 50.8345 615.064 52.2926 617.721 52.2926L635.599 52.2926L635.599 117.867C635.599 120.981 636.894 121.769 638.971 121.769L650.481 121.769C652.559 121.769 653.819 120.981 653.819 117.867L653.819 52.2926L671.596 52.2926C674.286 52.2926 674.967 50.8345 674.967 48.3912L674.967 37.2387C674.967 34.8349 674.286 33.3374 671.596 33.3374Z" fill="#4348bd" fill-rule="nonzero" opacity="1" stroke="none" vectornator:layerName="path"/>
</g>
</g>
</svg>
