<?xml version="1.0" encoding="UTF-8" standalone="no" ?>
<!DOCTYPE svg PUBLIC "-//W3C//DTD SVG 1.1//EN" "http://www.w3.org/Graphics/SVG/1.1/DTD/svg11.dtd">
<svg xmlns="http://www.w3.org/2000/svg" xmlns:xlink="http://www.w3.org/1999/xlink" version="1.1" width="500" height="500" viewBox="0 0 500 500" xml:space="preserve">
<desc>Created with Fabric.js 3.6.3</desc>
<defs>
</defs>
<rect x="0" y="0" width="100%" height="100%" fill="#ffffff"></rect>
<g transform="matrix(0 -0.8461095585946362 -1.3544337561974513 0 214.76796313671787 249.5769452207027)"  >
<path style="stroke: none; stroke-width: 1; stroke-dasharray: none; stroke-linecap: butt; stroke-dashoffset: 0; stroke-linejoin: miter; stroke-miterlimit: 4; fill: rgb(67,72,189); fill-rule: nonzero; opacity: 1;"  transform=" translate(-49.95, -50)" d="M 91.7 49 H 8.3 c -0.6 0 -1 0.4 -1 1 s 0.4 1 1 1 h 83.3 c 0.6 0 1 -0.4 1 -1 S 92.2 49 91.7 49 z" stroke-linecap="round" />
</g>
<g transform="matrix(0.7578589656855163 0 0 0.7578589656855163 168.2858965685516 250)"  >
<g style=""   >
		<g transform="matrix(1 0 0 1 2.5749999999999957 0.5)"  >
<path style="stroke: none; stroke-width: 1; stroke-dasharray: none; stroke-linecap: butt; stroke-dashoffset: 0; stroke-linejoin: miter; stroke-miterlimit: 4; fill: rgb(231,76,60); fill-rule: nonzero; opacity: 1;"  transform=" translate(-52.074999999999996, -50)" d="M 87.8 42.5 L 55.2 10 c -2.4 -2.4 -5.6 -3.7 -9 -3.7 c -3.4 0 -6.6 1.3 -9 3.7 L 13.5 33.6 c -1.8 1.8 -1.8 4.6 0 6.4 c 1.8 1.8 4.6 1.8 6.4 0 l 23.7 -23.7 c 1.4 -1.4 3.9 -1.4 5.4 0 l 32.6 32.6 c 1 1 1.5 2.2 1.5 3.6 v 29.9 c 0 1.3 -1 2.3 -2.3 2.3 H 70.5 c -2.6 0 -4.7 -2.1 -4.7 -4.7 V 66.1 c 0 -6.2 -5 -11.2 -11.2 -11.2 H 42.3 c -6.1 0 -11 5 -11 11 v 14 c 0 2.5 2 4.5 4.5 4.5 s 4.5 -2 4.5 -4.5 V 66 c 0 -1.1 0.9 -2 2 -2 h 12.3 c 1.2 0 2.2 1 2.2 2.2 V 80 c 0 7.6 6.1 13.7 13.7 13.7 h 10.2 c 6.2 0 11.3 -5.1 11.3 -11.3 V 52.4 C 91.9 48.7 90.4 45.2 87.8 42.5 z" stroke-linecap="round" />
</g>
</g>
</g>
<g transform="matrix(1 0 0 1 314.89316519783733 268.1264482842758)" style=""  ><path fill="#4348BD" opacity="1" d="M-76.27 6.04L-78.42 6.04L-78.42-6.99L-76.37-6.99C-75.59-6.99-75.38-7.36-75.38-7.97L-75.38-10.74C-75.38-11.35-75.59-11.73-76.37-11.73L-85.85-11.73C-86.63-11.73-86.84-11.35-86.84-10.74L-86.84-7.97C-86.84-7.36-86.63-6.99-85.85-6.99L-83.77-6.99L-83.77 6.04L-85.92 6.04C-86.70 6.04-86.91 6.42-86.91 7.03L-86.91 9.72C-86.91 10.34-86.70 10.71-85.92 10.71L-76.27 10.71C-75.48 10.71-75.28 10.34-75.28 9.72L-75.28 7.03C-75.28 6.42-75.48 6.04-76.27 6.04Z"/><path fill="#4348BD" opacity="1" d="M-50.76-11.76L-54.03-11.76C-55.16-11.76-55.33-11.01-55.57-10.60L-60.27-2.21L-64.95-10.60C-65.22-11.01-65.36-11.76-66.51-11.76L-69.89-11.76C-70.68-11.76-70.88-11.38-70.88-10.77L-70.88 9.72C-70.88 10.51-70.50 10.71-69.89 10.71L-66.51 10.71C-65.90 10.71-65.53 10.51-65.53 9.72L-65.53-1.84L-62.08 4.13C-61.91 4.40-61.64 4.85-61.13 4.85L-59.42 4.85C-58.91 4.85-58.60 4.40-58.43 4.13L-55.02-1.84L-55.02 9.72C-55.02 10.51-54.65 10.71-54.03 10.71L-50.76 10.71C-50.15 10.71-49.77 10.51-49.77 9.72L-49.77-10.77C-49.77-11.38-49.98-11.76-50.76-11.76Z"/><path fill="#4348BD" opacity="1" d="M-24.61-11.76L-27.88-11.76C-29.00-11.76-29.18-11.01-29.41-10.60L-34.12-2.21L-38.79-10.60C-39.06-11.01-39.20-11.76-40.36-11.76L-43.74-11.76C-44.52-11.76-44.72-11.38-44.72-10.77L-44.72 9.72C-44.72 10.51-44.35 10.71-43.74 10.71L-40.36 10.71C-39.75 10.71-39.37 10.51-39.37 9.72L-39.37-1.84L-35.93 4.13C-35.76 4.40-35.48 4.85-34.97 4.85L-33.27 4.85C-32.76 4.85-32.45 4.40-32.28 4.13L-28.87-1.84L-28.87 9.72C-28.87 10.51-28.49 10.71-27.88 10.71L-24.61 10.71C-23.99 10.71-23.62 10.51-23.62 9.72L-23.62-10.77C-23.62-11.38-23.82-11.76-24.61-11.76Z"/><path fill="#4348BD" opacity="1" d="M-0.94-4.53C-0.94-9.92-6.06-12.24-10.11-12.24C-14.17-12.24-19.22-9.92-19.22-4.53L-19.22 3.52C-19.22 8.90-14.17 11.22-10.11 11.22C-6.06 11.22-0.94 8.90-0.94 3.52ZM-6.29 3.04C-6.29 5.22-7.86 6.48-10.11 6.48C-12.33 6.48-13.90 5.22-13.90 3.04L-13.90-4.05C-13.90-6.24-12.33-7.50-10.11-7.50C-7.86-7.50-6.29-6.24-6.29-4.05Z"/><path fill="#4348BD" opacity="1" d="M7.62 4.95L3.83 4.95C3.22 4.95 2.84 5.15 2.84 5.94L2.84 9.72C2.84 10.51 3.22 10.71 3.83 10.71L7.62 10.71C8.23 10.71 8.61 10.51 8.61 9.72L8.61 5.94C8.61 5.15 8.23 4.95 7.62 4.95Z"/><path fill="#4348BD" opacity="1" d="M21.74-11.73L14.06-11.73C13.28-11.73 13.07-11.35 13.07-10.74L13.07 9.72C13.07 10.51 13.45 10.71 14.06 10.71L17.44 10.71C18.05 10.71 18.43 10.51 18.43 9.72L18.43 4.06L21.70 4.06C27.53 4.06 30.67 0.93 30.67-3.81C30.67-8.52 27.60-11.73 21.74-11.73ZM21.70-0.54L18.43-0.54L18.43-6.92L21.70-6.92C24.36-6.92 25.52-5.49 25.52-3.71C25.52-2.01 24.36-0.54 21.70-0.54Z"/><path fill="#4348BD" opacity="1" d="M52.87 9.62L48.06 2.63C50.18 1.91 52.80-0.57 52.80-4.16C52.80-6.34 52.08-8.28 50.82-9.51C49.39-10.94 47.75-11.69 44.04-11.69L35.44-11.69C34.66-11.69 34.49-11.32 34.49-10.70L34.49 9.72C34.49 10.51 34.83 10.71 35.44 10.71L38.82 10.71C39.43 10.71 39.81 10.51 39.81 9.72L39.81-6.92L44.34-6.92C46.12-6.92 47.48-5.79 47.48-4.02C47.48-2.42 45.91-1.26 44.24-1.26L43.56-1.26C42.78-1.26 42.57-0.88 42.57-0.27L42.57 2.46C42.57 3.41 42.64 3.79 42.95 4.20L46.63 9.69C47.11 10.41 47.52 10.71 48.33 10.71L52.36 10.71C53.01 10.71 53.18 10.10 52.87 9.62Z"/><path fill="#4348BD" opacity="1" d="M74.83-4.53C74.83-9.92 69.71-12.24 65.66-12.24C61.60-12.24 56.55-9.92 56.55-4.53L56.55 3.52C56.55 8.90 61.60 11.22 65.66 11.22C69.71 11.22 74.83 8.90 74.83 3.52ZM69.48 3.04C69.48 5.22 67.91 6.48 65.66 6.48C63.44 6.48 61.87 5.22 61.87 3.04L61.87-4.05C61.87-6.24 63.44-7.50 65.66-7.50C67.91-7.50 69.48-6.24 69.48-4.05Z"/></g><g transform="matrix(1 0 0 1 315.5491395453255 233.67992732593876)" style=""  ><path fill="#4348BD" opacity="1" d="M-74.79-2.31C-76.16-2.86-81.17-3.61-81.17-5.69C-81.17-7.22-79.29-7.67-78.17-7.67C-77.15-7.67-75.92-7.36-75.27-6.75C-74.86-6.34-74.69-6.07-74.55-5.72C-74.38-5.28-74.28-4.80-73.63-4.80L-70.29-4.80C-69.51-4.80-69.30-4.94-69.30-5.76C-69.30-10.26-74.04-12.24-78.37-12.24C-82.64-12.07-86.66-9.88-86.66-5.45C-86.66-1.12-83.49 0.24-80.04 1.33C-77.15 2.26-74.11 2.29-74.11 4.20C-74.11 6.11-75.61 6.52-77.45 6.52C-78.71 6.52-80.11 6.21-80.79 5.39C-81.24 4.88-81.41 4.44-81.44 3.99C-81.51 3.14-81.89 3.04-82.67 3.04L-85.98 3.04C-86.76 3.04-86.97 3.21-86.97 3.99C-86.97 8.77-82.06 11.22-77.79 11.22C-72.54 11.22-68.72 8.90-68.72 4.06C-68.72-0.57-72.34-1.56-74.79-2.31Z"/><path fill="#4348BD" opacity="1" d="M-44.61-11.76L-47.89-11.76C-49.01-11.76-49.18-11.01-49.42-10.60L-54.13-2.21L-58.80-10.60C-59.07-11.01-59.21-11.76-60.37-11.76L-63.74-11.76C-64.53-11.76-64.73-11.38-64.73-10.77L-64.73 9.72C-64.73 10.51-64.36 10.71-63.74 10.71L-60.37 10.71C-59.75 10.71-59.38 10.51-59.38 9.72L-59.38-1.84L-55.94 4.13C-55.77 4.40-55.49 4.85-54.98 4.85L-53.28 4.85C-52.76 4.85-52.46 4.40-52.29 4.13L-48.88-1.84L-48.88 9.72C-48.88 10.51-48.50 10.71-47.89 10.71L-44.61 10.71C-44.00 10.71-43.63 10.51-43.63 9.72L-43.63-10.77C-43.63-11.38-43.83-11.76-44.61-11.76Z"/><path fill="#4348BD" opacity="1" d="M-19.28 9.76L-26.81-10.67C-27.12-11.38-27.46-11.73-28.21-11.73L-31.49-11.73C-32.24-11.73-32.61-11.38-32.88-10.67L-40.45 9.76C-40.62 10.17-40.62 10.71-39.87 10.71L-36.29 10.71C-35.54 10.71-35.27 10.51-35.00 9.69L-34.04 7.00L-25.69 7.00L-24.73 9.69C-24.46 10.51-24.19 10.71-23.44 10.71L-19.86 10.71C-19.11 10.71-19.11 10.17-19.28 9.76ZM-32.41 2.22L-29.85-5.31L-27.29 2.22Z"/><path fill="#4348BD" opacity="1" d="M2.14 9.62L-2.67 2.63C-0.56 1.91 2.07-0.57 2.07-4.16C2.07-6.34 1.35-8.28 0.09-9.51C-1.34-10.94-2.98-11.69-6.70-11.69L-15.29-11.69C-16.07-11.69-16.24-11.32-16.24-10.70L-16.24 9.72C-16.24 10.51-15.90 10.71-15.29 10.71L-11.91 10.71C-11.30 10.71-10.92 10.51-10.92 9.72L-10.92-6.92L-6.39-6.92C-4.62-6.92-3.25-5.79-3.25-4.02C-3.25-2.42-4.82-1.26-6.49-1.26L-7.17-1.26C-7.96-1.26-8.16-0.88-8.16-0.27L-8.16 2.46C-8.16 3.41-8.09 3.79-7.79 4.20L-4.10 9.69C-3.63 10.41-3.22 10.71-2.40 10.71L1.63 10.71C2.27 10.71 2.44 10.10 2.14 9.62Z"/><path fill="#4348BD" opacity="1" d="M21.64-11.73L5.82-11.73C5.04-11.73 4.83-11.35 4.83-10.74L4.83-7.91C4.83-7.29 5.04-6.92 5.82-6.92L11.07-6.92L11.07 9.72C11.07 10.51 11.45 10.71 12.06 10.71L15.44 10.71C16.05 10.71 16.42 10.51 16.42 9.72L16.42-6.92L21.64-6.92C22.43-6.92 22.63-7.29 22.63-7.91L22.63-10.74C22.63-11.35 22.43-11.73 21.64-11.73Z"/></g></svg>